<?xml version="1.0" encoding="utf-8"?>
<!-- Generator: Adobe Illustrator 16.0.4, SVG Export Plug-In . SVG Version: 6.00 Build 0)  -->
<!DOCTYPE svg PUBLIC "-//W3C//DTD SVG 1.1//EN" "http://www.w3.org/Graphics/SVG/1.1/DTD/svg11.dtd">
<svg version="1.1" id="Layer_1" xmlns="http://www.w3.org/2000/svg" xmlns:xlink="http://www.w3.org/1999/xlink" x="0px" y="0px"
	 width="1140px" height="180px" viewBox="0 0 1140 180" enable-background="new 0 0 1140 180" xml:space="preserve">
<g>
	
		<image overflow="visible" opacity="0.4" width="477" height="133" xlink:href="BDFE54F285D3EF5C.png"  transform="matrix(1 0 0 1 117.5 3.5)">
	</image>
	<g>
		<g>
			<g>
				<g>
					<g>
						<polygon fill="#FFFFFF" points="226.965,40.062 226.965,23.595 188.343,23.595 171.877,23.595 133.254,23.595 133.254,40.062 
							171.68,40.062 171.68,100.838 133.254,100.838 133.254,117.307 171.877,117.307 188.343,117.307 226.965,117.307 
							226.965,100.838 188.537,100.838 188.537,40.062 						"/>
						<polygon fill="#FFFFFF" points="460.694,39.998 460.694,23.595 435.709,23.595 366.229,23.595 366.229,39.998 
							366.229,100.902 366.229,117.307 436.379,117.307 460.694,117.307 460.694,100.902 383.178,100.902 383.178,78.65 
							443.685,78.65 443.685,62.248 383.178,62.248 383.178,39.998 						"/>
						<path fill="#FFFFFF" d="M297.503,23.631v-0.036h-1.625h-3.159h-8.92h-17.051h-15.035v9.42v71.077v13.215h14.124h17.962h8.92
							h3.159h0.714v-0.019c29.063-0.329,49.085-20.681,49.085-46.973C345.677,44.302,326.072,24.361,297.503,23.631z
							 M296.664,101.176v-0.011h-27.059v-0.114h-1.05l0,0h-0.038V39.77h0.028v-0.057h1.538v0.001h26.843
							c18.454,0.439,30.46,13.32,30.46,30.847C327.387,88.186,315.267,100.865,296.664,101.176z"/>
						<path fill="#FFFFFF" d="M527.25,19.478c-28.438,0-51.489,22.823-51.489,50.966c0,28.158,23.051,50.98,51.489,50.98
							c28.438,0,51.495-22.822,51.495-50.98C578.745,42.301,555.688,19.478,527.25,19.478z M527.25,103.834
							c-18.615,0-33.714-14.949-33.714-33.39c0-18.42,15.099-33.368,33.714-33.368s33.715,14.948,33.715,33.368
							C560.965,88.885,545.865,103.834,527.25,103.834z"/>
					</g>
				</g>
			</g>
		</g>
	</g>
</g>
<g>
	
		<image overflow="visible" opacity="0.4" width="114" height="124" xlink:href="BDFE54F285D3EF5D.png"  transform="matrix(1 0 0 1 11.5 8.5)">
	</image>
	<g>
		<g>
			<g>
				<g>
					<path fill="#FFFFFF" d="M105.29,95.703H89.369l-3.612,21.541H71.441l3.613-21.541H53.245l-3.611,21.541H35.318l3.612-21.541
						H27.022V81.79h14.315l4.014-23.28H31.973V44.597H47.76l3.613-21.005h14.315l-3.612,21.005h21.807l3.612-21.005h14.316
						l-3.613,21.005h12.042V58.51H95.791l-4.014,23.28h13.513V95.703z M55.386,82.191h22.343l4.148-24.083H59.533L55.386,82.191z"/>
				</g>
			</g>
		</g>
	</g>
</g>
<g enable-background="new    ">
	
		<image overflow="visible" opacity="0.4" width="541" height="135" xlink:href="BDFE54F285D3EF5B.png"  transform="matrix(1 0 0 1 571.5 3.5)">
	</image>
	<g>
		<g>
			<path fill="#FFFFFF" d="M589.271,112.15h15l19.648-78.897H608.62l2.399-9.899h39.148l6.15,73.796h0.449l42.749-73.796h40.798
				l-2.399,9.899h-15.75l-19.649,78.897h16.05l-2.25,9.899h-44.098l2.249-9.899h12.6l19.35-77.697h-1.65l-52.647,87.597h-7.5
				l-8.699-87.597h-1.35l-19.35,77.697h13.8l-2.25,9.899h-39.748L589.271,112.15z"/>
			<path fill="#FFFFFF" d="M781.568,109.75c0-3.75,1.051-10.049,3.45-16.799l-1.05-0.45c-9.449,20.249-19.799,30.898-29.999,30.898
				c-7.949,0-12.6-6.899-12.6-15.749c0-12.149,10.5-31.949,10.5-41.398c0-1.95-0.75-3.3-2.25-3.3c-3.6,0-6.149,3.9-11.55,14.699
				l-6.6-3c6.149-14.1,13.5-22.499,22.799-22.499c6.9,0,11.1,4.649,11.1,13.5c0,14.699-9.899,29.998-9.899,40.348
				c0,4.65,1.5,6.15,3.9,6.15c7.499,0,20.999-13.949,33.148-59.098h14.85l-12.3,46.048c-1.2,4.5-1.8,7.5-1.8,9.6
				c0,2.55,1.35,3.899,3.6,3.899c3.899,0,7.05-5.999,10.5-15.449l6.6,1.95c-6,18.749-13.8,24.299-20.699,24.299
				C786.068,123.399,781.568,119.5,781.568,109.75z"/>
			<path fill="#FFFFFF" d="M881.616,112.6c3.45,0,6.75-5.999,10.2-15.449l6.6,1.95c-6,18.749-13.8,24.299-20.699,24.299
				c-6.9,0-12.149-4.649-12.149-13.499c0-16.049,9.899-29.849,9.899-41.099c0-3.899-1.5-5.25-3.9-5.25
				c-7.499,0-21.448,14.399-33.298,58.498h-14.85l13.05-49.048c2.249-8.55,2.1-11.4-1.2-11.4c-3.9,0-7.95,6.9-12.45,16.2l-6.6-3
				c6.15-14.1,13.2-22.349,22.35-22.349c6.3,0,10.35,4.5,10.35,13.799c0,4.5-1.05,10.2-3.45,16.649l1.05,0.45
				c9.45-20.25,20.249-31.199,30.449-31.199c7.949,0,12.6,7.049,12.6,15.899c0,12.15-10.649,30.899-10.649,41.249
				C878.917,111.4,879.666,112.6,881.616,112.6z"/>
			<path fill="#FFFFFF" d="M927.219,108.851c0,2.55,1.05,3.749,3.3,3.749c3.149,0,6.6-4.799,10.799-15.449l6.6,1.95
				c-5.85,18.149-13.799,24.299-22.049,24.299c-6.899,0-12.149-4.649-12.149-13.499c0-15.6,12.449-34.349,12.449-44.848
				c0-2.55-0.75-3.45-2.399-3.45c-4.8,0-8.7,6.9-13.199,16.2l-6.601-3c6.15-14.1,13.65-22.649,22.8-22.649
				c7.35,0,12.449,5.7,12.449,15.899C939.218,79.452,927.219,99.4,927.219,108.851z M935.768,40.753c-4.35,0-7.8-3-7.8-8.25
				c0-5.7,4.351-12.299,11.1-12.299c4.95,0,8.25,3.15,8.25,8.399C947.317,34.153,942.668,40.753,935.768,40.753z"/>
			<path fill="#FFFFFF" d="M1015.715,68.502c0,5.25-3.149,11.55-9.149,11.55c-4.8,0-7.95-3.3-7.95-7.35c0-3.3,1.5-6.75,5.101-9.899
				c-1.2-1.5-3.9-3.15-8.4-3.15c-16.199,0-25.198,25.949-25.198,37.799c0,12.449,6.449,16.949,13.649,16.949
				c7.05,0,13.799-5.55,19.648-15.449l6.15,3.6c-6.45,11.999-14.399,20.849-28.049,20.849c-15.449,0-25.949-11.249-25.949-26.999
				c0-22.499,19.649-44.248,40.049-44.248C1007.915,52.153,1015.715,59.652,1015.715,68.502z"/>
			<path fill="#FFFFFF" d="M1064.018,109.9c0-16.049,9.899-29.849,9.899-41.099c0-3.899-1.5-5.25-3.899-5.25
				c-7.5,0-22.949,14.399-34.799,58.498h-14.85l24.599-92.246h-13.649l2.851-10.8h27.448l-18.749,64.498l0.9,0.45
				c9.449-20.249,21.449-31.798,31.648-31.798c7.949,0,12.6,7.049,12.6,15.899c0,12.15-10.649,30.899-10.649,41.249
				c0,2.1,0.75,3.299,2.699,3.299c3.45,0,6.75-5.999,10.2-15.449l6.6,1.95c-6,18.749-13.8,24.299-20.699,24.299
				S1064.018,118.75,1064.018,109.9z"/>
		</g>
	</g>
</g>
</svg>
