<?xml version="1.0" encoding="utf-8"?>
<!-- Generator: Adobe Illustrator 16.0.4, SVG Export Plug-In . SVG Version: 6.00 Build 0)  -->
<!DOCTYPE svg PUBLIC "-//W3C//DTD SVG 1.1//EN" "http://www.w3.org/Graphics/SVG/1.1/DTD/svg11.dtd">
<svg version="1.1" id="Layer_1" xmlns="http://www.w3.org/2000/svg" xmlns:xlink="http://www.w3.org/1999/xlink" x="0px" y="0px"
	 width="840px" height="180px" viewBox="0 0 840 180" enable-background="new 0 0 840 180" xml:space="preserve">
<g>
	
		<image overflow="visible" opacity="0.4" width="477" height="133" xlink:href="67F03DA8D6D8F221.png"  transform="matrix(1 0 0 1 117.5 3.5)">
	</image>
	<g>
		<g>
			<g>
				<g>
					<g>
						<polygon fill="#FFFFFF" points="226.965,40.062 226.965,23.595 188.343,23.595 171.877,23.595 133.254,23.595 133.254,40.062 
							171.68,40.062 171.68,100.838 133.254,100.838 133.254,117.307 171.877,117.307 188.343,117.307 226.965,117.307 
							226.965,100.838 188.537,100.838 188.537,40.062 						"/>
						<polygon fill="#FFFFFF" points="460.694,39.998 460.694,23.595 435.709,23.595 366.229,23.595 366.229,39.998 
							366.229,100.902 366.229,117.307 436.379,117.307 460.694,117.307 460.694,100.902 383.178,100.902 383.178,78.65 
							443.685,78.65 443.685,62.248 383.178,62.248 383.178,39.998 						"/>
						<path fill="#FFFFFF" d="M297.503,23.631v-0.036h-1.625h-3.159h-8.92h-17.051h-15.035v9.42v71.077v13.215h14.124h17.962h8.92
							h3.159h0.714v-0.019c29.063-0.329,49.085-20.681,49.085-46.973C345.677,44.302,326.072,24.361,297.503,23.631z
							 M296.664,101.176v-0.011h-27.059v-0.114h-1.05l0,0h-0.038V39.77h0.028v-0.057h1.538v0.001h26.843
							c18.454,0.439,30.46,13.32,30.46,30.847C327.387,88.186,315.267,100.865,296.664,101.176z"/>
						<path fill="#FFFFFF" d="M527.25,19.478c-28.438,0-51.489,22.823-51.489,50.966c0,28.158,23.051,50.98,51.489,50.98
							c28.438,0,51.495-22.822,51.495-50.98C578.745,42.301,555.688,19.478,527.25,19.478z M527.25,103.834
							c-18.615,0-33.714-14.949-33.714-33.39c0-18.42,15.099-33.368,33.714-33.368s33.715,14.948,33.715,33.368
							C560.965,88.885,545.865,103.834,527.25,103.834z"/>
					</g>
				</g>
			</g>
		</g>
	</g>
</g>
<g>
	
		<image overflow="visible" opacity="0.4" width="114" height="124" xlink:href="67F03DA8D6D8F223.png"  transform="matrix(1 0 0 1 11.5 8.5)">
	</image>
	<g>
		<g>
			<g>
				<g>
					<path fill="#FFFFFF" d="M105.29,95.703H89.369l-3.612,21.541H71.441l3.613-21.541H53.245l-3.611,21.541H35.318l3.612-21.541
						H27.022V81.79h14.315l4.014-23.28H31.973V44.597H47.76l3.613-21.005h14.315l-3.612,21.005h21.807l3.612-21.005h14.316
						l-3.613,21.005h12.042V58.51H95.791l-4.014,23.28h13.513V95.703z M55.386,82.191h22.343l4.148-24.083H59.533L55.386,82.191z"/>
				</g>
			</g>
		</g>
	</g>
</g>
<g enable-background="new    ">
	
		<image overflow="visible" opacity="0.4" width="221" height="134" xlink:href="67F03DA8D6D8F226.png"  transform="matrix(1 0 0 1 573.5 5.5)">
	</image>
	<g>
		<g>
			<path fill="#FFFFFF" d="M597.521,87.551h8.85c3.6,18.75,13.649,27.599,26.398,27.599c13.35,0,20.399-9.15,20.399-17.1
				c0-9.3-10.05-13.799-20.699-18.899c-11.999-5.7-24.898-12.149-24.898-27.149c0-15.149,14.399-31.048,34.648-31.048
				c10.35,0,20.099,4.35,24.449,11.25l5.999-10.8h9.9l-8.851,35.099h-8.699c-4.05-19.799-10.949-26.399-23.849-26.399
				c-10.5,0-17.699,8.25-17.699,16.5c0,10.199,10.199,14.399,20.999,19.199c11.85,5.25,24.449,11.25,24.449,26.699
				c0,17.249-16.2,31.949-36.899,31.949c-12.449,0-21.898-4.801-26.998-11.55L598.42,124h-9.899L597.521,87.551z"/>
			<path fill="#FFFFFF" d="M723.668,68.802c11.1,0,13.949-2.55,19.049-15.299h7.95l-9.9,39.898h-7.949
				c1.65-14.699,0.3-16.199-11.25-16.199h-7.049l-8.7,34.949h18.3l-2.25,9.899H671.62l2.25-9.899h16.499l19.649-78.897h-16.8
				l2.4-9.899h83.696l-8.25,32.849h-6.899c-1.35-19.199-3.75-22.949-15.6-22.949h-23.099l-8.85,35.548H723.668z"/>
		</g>
	</g>
</g>
</svg>
