<?xml version="1.0" encoding="utf-8"?>
<!-- Generator: Adobe Illustrator 16.0.4, SVG Export Plug-In . SVG Version: 6.00 Build 0)  -->
<!DOCTYPE svg PUBLIC "-//W3C//DTD SVG 1.1//EN" "http://www.w3.org/Graphics/SVG/1.1/DTD/svg11.dtd">
<svg version="1.1" id="Layer_1" xmlns="http://www.w3.org/2000/svg" xmlns:xlink="http://www.w3.org/1999/xlink" x="0px" y="0px"
	 width="1015px" height="180px" viewBox="0 0 1015 180" enable-background="new 0 0 1015 180" xml:space="preserve">
<g>
	
		<image overflow="visible" opacity="0.4" width="476" height="133" xlink:href="D74F3387E0C1D3E3.png"  transform="matrix(1 0 0 1 118 3.5)">
	</image>
	<g>
		<g>
			<g>
				<g>
					<g>
						<g>
							<polygon fill="#FFFFFF" points="226.965,40.062 226.965,23.595 188.343,23.595 171.877,23.595 133.254,23.595 
								133.254,40.062 171.68,40.062 171.68,100.838 133.254,100.838 133.254,117.307 171.877,117.307 188.343,117.307 
								226.965,117.307 226.965,100.838 188.537,100.838 188.537,40.062 							"/>
							<polygon fill="#FFFFFF" points="460.694,39.998 460.694,23.595 435.709,23.595 366.229,23.595 366.229,39.998 
								366.229,100.902 366.229,117.307 436.379,117.307 460.694,117.307 460.694,100.902 383.178,100.902 383.178,78.65 
								443.685,78.65 443.685,62.248 383.178,62.248 383.178,39.998 							"/>
							<path fill="#FFFFFF" d="M297.503,23.631v-0.036h-1.625h-3.159h-8.92h-17.051h-15.035v9.42v71.077v13.215h14.124h17.962h8.92
								h3.159h0.714v-0.019c29.063-0.329,49.085-20.681,49.085-46.973C345.677,44.302,326.072,24.361,297.503,23.631z
								 M296.664,101.176v-0.011h-27.059v-0.114h-1.05l0,0h-0.038V39.77h0.028v-0.057h1.538v0.001h26.843
								c18.454,0.439,30.46,13.32,30.46,30.847C327.387,88.186,315.267,100.865,296.664,101.176z"/>
							<path fill="#FFFFFF" d="M527.25,19.478c-28.438,0-51.489,22.823-51.489,50.966c0,28.158,23.051,50.98,51.489,50.98
								c28.438,0,51.495-22.822,51.495-50.98C578.745,42.301,555.688,19.478,527.25,19.478z M527.25,103.834
								c-18.615,0-33.714-14.949-33.714-33.39c0-18.42,15.099-33.368,33.714-33.368s33.715,14.948,33.715,33.368
								C560.965,88.885,545.865,103.834,527.25,103.834z"/>
						</g>
					</g>
				</g>
			</g>
		</g>
	</g>
</g>
<g>
	
		<image overflow="visible" opacity="0.4" width="114" height="124" xlink:href="D74F3387E0C1D3E1.png"  transform="matrix(1 0 0 1 12 8.5)">
	</image>
	<g>
		<g>
			<g>
				<g>
					<g>
						<path fill="#FFFFFF" d="M105.29,95.703H89.369l-3.612,21.541H71.441l3.613-21.541H53.245l-3.611,21.541H35.318l3.612-21.541
							H27.022V81.79h14.315l4.014-23.28H31.973V44.597H47.76l3.613-21.005h14.315l-3.612,21.005h21.807l3.612-21.005h14.316
							l-3.613,21.005h12.042V58.51H95.791l-4.014,23.28h13.513V95.703z M55.386,82.191h22.343l4.148-24.083H59.533L55.386,82.191z"
							/>
					</g>
				</g>
			</g>
		</g>
	</g>
</g>
<g>
	
		<image overflow="visible" opacity="0.4" width="127" height="130" xlink:href="D74F3387E0C1D3E7.png"  transform="matrix(1 0 0 1 587 7.5)">
	</image>
	<g>
		<path fill="#FFFFFF" d="M608.02,112.15h16.95l20.099-80.397h-6.149c-12.3,0-15.899,3.9-29.399,26.699h-7.199l8.85-35.098h87.446
			l-8.85,35.098h-6.899c-1.351-21.899-3.3-26.699-15.899-26.699h-6.45l-20.099,80.397h17.249l-2.25,9.899h-49.647L608.02,112.15z"/>
	</g>
</g>
<g>
	
		<image overflow="visible" opacity="0.4" width="95" height="102" xlink:href="D74F3387E0C1D3E0.png"  transform="matrix(1 0 0 1 672 36.5)">
	</image>
	<g>
		<path fill="#FFFFFF" d="M751.268,80.952c0,22.798-17.399,42.448-37.499,42.448c-16.499,0-26.549-11.999-26.549-28.798
			c0-22.8,17.399-42.449,37.498-42.449C741.218,52.153,751.268,64.152,751.268,80.952z M724.718,59.652
			c-14.399,0-22.948,25.199-22.948,41.248c0,9.9,4.199,15,11.999,15c14.399,0,22.949-25.199,22.949-41.249
			C736.718,64.752,732.518,59.652,724.718,59.652z"/>
	</g>
</g>
<g>
	
		<image overflow="visible" opacity="0.4" width="103" height="135" xlink:href="D74F3387E0C1D3EE.png"  transform="matrix(1 0 0 1 742 3.5)">
	</image>
	<g>
		<path fill="#FFFFFF" d="M810.219,112.6c3.45,0,6.6-5.999,9.9-15.449l6.6,1.95c-5.55,18.749-13.35,24.299-20.25,24.299
			c-6.6,0-12.449-4.499-12.449-15.149c0-3.75,1.5-10.049,1.5-13.199c0-5.85-2.7-7.2-13.499-7.2h-1.5l-9.149,34.199h-13.5
			l24.599-92.246H768.82l2.851-10.8h27.448L782.17,81.852h1.05c7.8,0,10.95-4.5,17.1-14.549c5.399-8.85,10.2-15.149,19.05-15.149
			c6.449,0,10.049,4.05,10.049,10.199c0,6-4.05,11.85-9.299,11.85c-5.7,0-8.7-5.25-6.15-11.25c-2.399,0.3-4.949,3.3-8.699,9.6
			c-3.45,6-5.55,9-10.35,11.399c10.05,0.75,13.499,5.25,13.499,12.3c0,4.35-1.2,9.149-1.2,11.85
			C807.219,111.4,808.27,112.6,810.219,112.6z"/>
	</g>
</g>
<g>
	
		<image overflow="visible" opacity="0.4" width="107" height="126" xlink:href="D74F3387E0C1D3EF.png"  transform="matrix(1 0 0 1 818 36.5)">
	</image>
	<g>
		<path fill="#FFFFFF" d="M866.92,65.052c0,14.699-8.7,27.449-8.7,36.749c0,4.199,1.5,5.699,5.1,5.699
			c9.149,0,20.55-11.699,31.649-54.447h14.099l-13.049,55.048c-6.45,27.448-19.949,38.998-39.299,38.998
			c-11.85,0-20.999-3.449-20.999-12.899c0-4.2,3.45-10.35,9.6-10.35c5.25,0,7.949,3.75,7.5,8.55c-0.15,1.65-1.2,4.2-2.55,5.7
			c2.1,0.6,4.649,1.05,7.199,1.05c11.85,0,20.85-10.5,26.399-33.749l2.1-8.85l-0.9-0.449C876.369,112,866.77,118.9,858.22,118.9
			c-9.449,0-14.1-7.051-14.1-15.75c0-11.399,9.3-28.049,9.3-36.749c0-1.95-0.75-3.3-2.1-3.3c-3.9,0-7.95,6.6-11.7,14.7l-6.6-3
			c6.15-14.1,14.1-22.499,22.8-22.499C862.72,52.303,866.92,56.953,866.92,65.052z"/>
	</g>
</g>
<g>
	
		<image overflow="visible" opacity="0.4" width="95" height="102" xlink:href="D74F3387E0C1D3E2.png"  transform="matrix(1 0 0 1 900 36.5)">
	</image>
	<g>
		<path fill="#FFFFFF" d="M979.269,80.952c0,22.798-17.399,42.448-37.499,42.448c-16.499,0-26.549-11.999-26.549-28.798
			c0-22.8,17.399-42.449,37.498-42.449C969.219,52.153,979.269,64.152,979.269,80.952z M952.719,59.652
			c-14.399,0-22.948,25.199-22.948,41.248c0,9.9,4.199,15,11.999,15c14.399,0,22.949-25.199,22.949-41.249
			C964.719,64.752,960.519,59.652,952.719,59.652z"/>
	</g>
</g>
</svg>
