<?xml version="1.0" encoding="utf-8"?>
<!-- Generator: Adobe Illustrator 16.0.4, SVG Export Plug-In . SVG Version: 6.00 Build 0)  -->
<!DOCTYPE svg PUBLIC "-//W3C//DTD SVG 1.1//EN" "http://www.w3.org/Graphics/SVG/1.1/DTD/svg11.dtd">
<svg version="1.1" id="Layer_1" xmlns="http://www.w3.org/2000/svg" xmlns:xlink="http://www.w3.org/1999/xlink" x="0px" y="0px"
	 width="1250px" height="180px" viewBox="0 0 1250 180" enable-background="new 0 0 1250 180" xml:space="preserve">
<g>
	<g>
		<g>
			<g>
				<g>
					<polygon fill="#FFFFFF" points="226.965,40.062 226.965,23.595 188.343,23.595 171.877,23.595 133.254,23.595 133.254,40.062 
						171.68,40.062 171.68,100.838 133.254,100.838 133.254,117.307 171.877,117.307 188.343,117.307 226.965,117.307 
						226.965,100.838 188.537,100.838 188.537,40.062 					"/>
					<polygon fill="#FFFFFF" points="460.694,39.998 460.694,23.595 435.709,23.595 366.229,23.595 366.229,39.998 366.229,100.902 
						366.229,117.307 436.379,117.307 460.694,117.307 460.694,100.902 383.178,100.902 383.178,78.65 443.685,78.65 
						443.685,62.248 383.178,62.248 383.178,39.998 					"/>
					<path fill="#FFFFFF" d="M297.503,23.631v-0.036h-1.625h-3.159h-8.92h-17.051h-15.035v9.42v71.077v13.215h14.124h17.962h8.92
						h3.159h0.714v-0.019c29.063-0.329,49.085-20.681,49.085-46.973C345.677,44.302,326.072,24.361,297.503,23.631z
						 M296.664,101.176v-0.011h-27.059v-0.114h-1.05l0,0h-0.038V39.77h0.028v-0.057h1.538v0.001h26.843
						c18.454,0.439,30.46,13.32,30.46,30.847C327.387,88.186,315.267,100.865,296.664,101.176z"/>
					<path fill="#FFFFFF" d="M527.25,19.478c-28.438,0-51.489,22.823-51.489,50.966c0,28.158,23.051,50.98,51.489,50.98
						c28.438,0,51.495-22.822,51.495-50.98C578.745,42.301,555.688,19.478,527.25,19.478z M527.25,103.834
						c-18.615,0-33.714-14.949-33.714-33.39c0-18.42,15.099-33.368,33.714-33.368s33.715,14.948,33.715,33.368
						C560.965,88.885,545.865,103.834,527.25,103.834z"/>
				</g>
			</g>
		</g>
	</g>
</g>
<g>
	<g>
		<g>
			<g>
				<path fill="#FFFFFF" d="M105.29,95.703H89.369l-3.612,21.541H71.441l3.613-21.541H53.245l-3.611,21.541H35.318l3.612-21.541
					H27.022V81.79h14.315l4.014-23.28H31.973V44.597H47.76l3.613-21.005h14.315l-3.612,21.005h21.807l3.612-21.005h14.316
					l-3.613,21.005h12.042V58.51H95.791l-4.014,23.28h13.513V95.703z M55.386,82.191h22.343l4.148-24.083H59.533L55.386,82.191z"/>
			</g>
		</g>
	</g>
</g>
<g enable-background="new    ">
	<path fill="#FFFFFF" d="M597.521,87.551h8.85c3.6,18.75,13.649,27.599,26.398,27.599c13.35,0,20.399-9.15,20.399-17.1
		c0-9.3-10.05-13.799-20.699-18.899c-11.999-5.7-24.898-12.149-24.898-27.149c0-15.149,14.399-31.048,34.648-31.048
		c10.35,0,20.099,4.35,24.449,11.25l5.999-10.8h9.9l-8.851,35.099h-8.699c-4.05-19.799-10.949-26.399-23.849-26.399
		c-10.5,0-17.699,8.25-17.699,16.5c0,10.199,10.199,14.399,20.999,19.199c11.85,5.25,24.449,11.25,24.449,26.699
		c0,17.249-16.2,31.949-36.899,31.949c-12.449,0-21.898-4.801-26.998-11.55L598.42,124h-9.899L597.521,87.551z"/>
	<path fill="#FFFFFF" d="M721.418,109.9c0-16.049,9.899-29.849,9.899-41.099c0-3.899-1.5-5.25-3.899-5.25
		c-7.5,0-22.949,14.399-34.799,58.498h-14.85l24.599-92.246h-13.649l2.851-10.8h27.448l-18.749,64.498l0.9,0.45
		c9.449-20.249,21.449-31.798,31.648-31.798c7.949,0,12.6,7.049,12.6,15.899c0,12.15-10.649,30.899-10.649,41.249
		c0,2.1,0.75,3.299,2.699,3.299c3.45,0,6.75-5.999,10.2-15.449l6.6,1.95c-6,18.749-13.8,24.299-20.699,24.299
		S721.418,118.75,721.418,109.9z"/>
	<path fill="#FFFFFF" d="M817.116,99.101c-1.199,4.351-1.8,7.35-1.8,9.6c0,2.399,1.05,3.899,3.6,3.899
		c3.75,0,7.05-5.999,10.5-15.449l6.6,1.95c-6,18.749-13.649,24.299-21.449,24.299c-6.3,0-11.1-4.199-11.1-12.3
		c0-1.049,0-1.649,0.15-3.149l-1.05-0.45c-5.55,10.35-14.25,15.899-22.199,15.899c-11.55,0-18.899-10.05-18.899-23.249
		c0-15.149,6-27.749,13.949-35.698c7.35-7.35,16.199-12.299,24.449-12.299c7.949,0,12.149,5.399,13.05,11.699l2.85-10.799h13.8
		L817.116,99.101z M809.017,73.002c0-7.95-3.149-12.45-8.85-12.45c-14.699,0-23.999,25.649-23.999,37.348
		c0,9.3,3.15,14.85,9.75,14.85C798.817,112.75,809.017,85.151,809.017,73.002z"/>
	<path fill="#FFFFFF" d="M904.564,112.6c3.45,0,6.75-5.999,10.2-15.449l6.6,1.95c-6,18.749-13.8,24.299-20.699,24.299
		c-6.9,0-12.149-4.649-12.149-13.499c0-16.049,9.899-29.849,9.899-41.099c0-3.899-1.5-5.25-3.9-5.25
		c-7.499,0-21.448,14.399-33.298,58.498h-14.85l13.049-49.048c2.25-8.55,2.101-11.4-1.199-11.4c-3.9,0-7.95,6.9-12.45,16.2l-6.6-3
		c6.15-14.1,13.2-22.349,22.35-22.349c6.3,0,10.35,4.5,10.35,13.799c0,4.5-1.05,10.2-3.45,16.649l1.05,0.45
		c9.45-20.25,20.249-31.199,30.449-31.199c7.949,0,12.6,7.049,12.6,15.899c0,12.15-10.649,30.899-10.649,41.249
		C901.865,111.4,902.615,112.6,904.564,112.6z"/>
	<path fill="#FFFFFF" d="M945.065,139.149c5.85,0,10.05-1.8,13.649-5.55c4.5-4.65,7.65-12.6,10.35-24.449l-1.05-0.45
		c-4.8,6.3-12.6,10.2-19.949,10.2c-12.3,0-19.499-9.9-19.499-21.449c0-13.5,5.1-25.949,14.1-34.949
		c6.75-6.75,13.949-10.35,22.199-10.35c7.649,0,13.199,4.8,14.849,11.399l2.551-10.5h13.799l-13.049,55.048
		c-6.45,27.448-18.149,38.998-38.398,38.998c-11.25,0-23.1-3-23.1-13.649c0-4.8,3.3-10.949,9.45-10.949
		c5.249,0,7.649,3.6,7.649,7.649c0,2.7-1.65,5.85-3.15,7.35C937.416,138.399,940.866,139.149,945.065,139.149z M976.114,73.902
		c0-7.95-5.1-13.35-10.499-13.35c-13.5,0-22.35,20.849-22.35,35.699c0,8.399,3.3,12.749,10.05,12.749
		C965.314,109,976.114,90.401,976.114,73.902z"/>
	<path fill="#FFFFFF" d="M1043.614,109.9c0-16.049,9.899-29.849,9.899-41.099c0-3.899-1.5-5.25-3.899-5.25
		c-7.5,0-22.949,14.399-34.799,58.498h-14.85l24.599-92.246h-13.649l2.851-10.8h27.448l-18.749,64.498l0.9,0.45
		c9.449-20.249,21.449-31.798,31.648-31.798c7.949,0,12.6,7.049,12.6,15.899c0,12.15-10.649,30.899-10.649,41.249
		c0,2.1,0.75,3.299,2.699,3.299c3.45,0,6.75-5.999,10.2-15.449l6.6,1.95c-6,18.749-13.8,24.299-20.699,24.299
		S1043.614,118.75,1043.614,109.9z"/>
	<path fill="#FFFFFF" d="M1139.313,99.101c-1.199,4.351-1.8,7.35-1.8,9.6c0,2.399,1.05,3.899,3.6,3.899
		c3.75,0,7.05-5.999,10.5-15.449l6.6,1.95c-6,18.749-13.649,24.299-21.449,24.299c-6.3,0-11.1-4.199-11.1-12.3
		c0-1.049,0-1.649,0.15-3.149l-1.05-0.45c-5.55,10.35-14.25,15.899-22.199,15.899c-11.55,0-18.899-10.05-18.899-23.249
		c0-15.149,6-27.749,13.949-35.698c7.35-7.35,16.199-12.299,24.449-12.299c7.949,0,12.149,5.399,13.05,11.699l2.85-10.799h13.8
		L1139.313,99.101z M1131.214,73.002c0-7.95-3.149-12.45-8.85-12.45c-14.699,0-23.999,25.649-23.999,37.348
		c0,9.3,3.15,14.85,9.75,14.85C1121.015,112.75,1131.214,85.151,1131.214,73.002z"/>
	<path fill="#FFFFFF" d="M1186.412,108.851c0,2.55,1.051,3.749,3.301,3.749c3.149,0,6.6-4.799,10.799-15.449l6.6,1.95
		c-5.85,18.149-13.799,24.299-22.049,24.299c-6.899,0-12.149-4.649-12.149-13.499c0-15.6,12.449-34.349,12.449-44.848
		c0-2.55-0.75-3.45-2.399-3.45c-4.8,0-8.7,6.9-13.199,16.2l-6.601-3c6.15-14.1,13.649-22.649,22.8-22.649
		c7.35,0,12.449,5.7,12.449,15.899C1198.412,79.452,1186.412,99.4,1186.412,108.851z M1194.962,40.753c-4.35,0-7.8-3-7.8-8.25
		c0-5.7,4.351-12.299,11.1-12.299c4.95,0,8.25,3.15,8.25,8.399C1206.512,34.153,1201.862,40.753,1194.962,40.753z"/>
</g>
</svg>
