<?xml version="1.0" encoding="utf-8"?>
<!-- Generator: Adobe Illustrator 16.0.4, SVG Export Plug-In . SVG Version: 6.00 Build 0)  -->
<!DOCTYPE svg PUBLIC "-//W3C//DTD SVG 1.1//EN" "http://www.w3.org/Graphics/SVG/1.1/DTD/svg11.dtd">
<svg version="1.1" id="Layer_1" xmlns="http://www.w3.org/2000/svg" xmlns:xlink="http://www.w3.org/1999/xlink" x="0px" y="0px"
	 width="1285px" height="180px" viewBox="0 0 1285 180" enable-background="new 0 0 1285 180" xml:space="preserve">
<g>
	<g>
		<g>
			<g>
				<g>
					<g>
						<polygon fill="#FFFFFF" points="226.965,40.062 226.965,23.595 188.343,23.595 171.877,23.595 133.254,23.595 133.254,40.062 
							171.68,40.062 171.68,100.838 133.254,100.838 133.254,117.307 171.877,117.307 188.343,117.307 226.965,117.307 
							226.965,100.838 188.537,100.838 188.537,40.062 						"/>
						<polygon fill="#FFFFFF" points="460.694,39.998 460.694,23.595 435.709,23.595 366.229,23.595 366.229,39.998 
							366.229,100.902 366.229,117.307 436.379,117.307 460.694,117.307 460.694,100.902 383.178,100.902 383.178,78.65 
							443.685,78.65 443.685,62.248 383.178,62.248 383.178,39.998 						"/>
						<path fill="#FFFFFF" d="M297.503,23.631v-0.036h-1.625h-3.159h-8.92h-17.051h-15.035v9.42v71.077v13.215h14.124h17.962h8.92
							h3.159h0.714v-0.019c29.063-0.329,49.085-20.681,49.085-46.973C345.677,44.302,326.072,24.361,297.503,23.631z
							 M296.664,101.176v-0.011h-27.059v-0.114h-1.05l0,0h-0.038V39.77h0.028v-0.057h1.538v0.001h26.843
							c18.454,0.439,30.46,13.32,30.46,30.847C327.387,88.186,315.267,100.865,296.664,101.176z"/>
						<path fill="#FFFFFF" d="M527.25,19.478c-28.438,0-51.489,22.823-51.489,50.966c0,28.158,23.051,50.98,51.489,50.98
							c28.438,0,51.495-22.822,51.495-50.98C578.745,42.301,555.688,19.478,527.25,19.478z M527.25,103.834
							c-18.615,0-33.714-14.949-33.714-33.39c0-18.42,15.099-33.368,33.714-33.368s33.715,14.948,33.715,33.368
							C560.965,88.885,545.865,103.834,527.25,103.834z"/>
					</g>
				</g>
			</g>
		</g>
	</g>
</g>
<g>
	<g>
		<g>
			<g>
				<g>
					<path fill="#FFFFFF" d="M105.29,95.703H89.369l-3.612,21.541H71.441l3.613-21.541H53.245l-3.611,21.541H35.318l3.612-21.541
						H27.022V81.79h14.315l4.014-23.28H31.973V44.597H47.76l3.613-21.005h14.315l-3.612,21.005h21.807l3.612-21.005h14.316
						l-3.613,21.005h12.042V58.51H95.791l-4.014,23.28h13.513V95.703z M55.386,82.191h22.343l4.148-24.083H59.533L55.386,82.191z"/>
				</g>
			</g>
		</g>
	</g>
</g>
<g enable-background="new    ">
	<g>
		<g>
			<path fill="#FFFFFF" d="M597.521,87.551h8.85c3.6,18.75,13.648,27.6,26.397,27.6c13.351,0,20.399-9.15,20.399-17.101
				c0-9.3-10.05-13.799-20.699-18.899c-11.999-5.7-24.897-12.149-24.897-27.149c0-15.149,14.398-31.048,34.647-31.048
				c10.351,0,20.1,4.35,24.449,11.25l5.999-10.8h9.9l-8.852,35.099h-8.699c-4.05-19.799-10.948-26.399-23.849-26.399
				c-10.5,0-17.699,8.25-17.699,16.5c0,10.199,10.199,14.399,20.999,19.199c11.851,5.25,24.449,11.25,24.449,26.699
				c0,17.249-16.2,31.949-36.899,31.949c-12.448,0-21.897-4.801-26.997-11.551L598.42,124h-9.898L597.521,87.551z"/>
			<path fill="#FFFFFF" d="M701.619,108.852c0,2.549,1.05,3.748,3.3,3.748c3.149,0,6.6-4.799,10.799-15.449l6.601,1.951
				c-5.851,18.148-13.8,24.299-22.05,24.299c-6.898,0-12.148-4.649-12.148-13.5c0-15.6,12.449-34.349,12.449-44.848
				c0-2.55-0.75-3.45-2.399-3.45c-4.8,0-8.7,6.9-13.199,16.2l-6.601-3c6.149-14.1,13.649-22.649,22.8-22.649
				c7.35,0,12.449,5.7,12.449,15.899C713.618,79.452,701.619,99.4,701.619,108.852z M710.168,40.753c-4.35,0-7.8-3-7.8-8.25
				c0-5.7,4.351-12.299,11.1-12.299c4.95,0,8.25,3.15,8.25,8.399C721.718,34.153,717.068,40.753,710.168,40.753z"/>
			<path fill="#FFFFFF" d="M791.915,112.6c3.45,0,6.75-5.998,10.2-15.449l6.6,1.951c-6,18.748-13.8,24.299-20.699,24.299
				s-12.148-4.649-12.148-13.5c0-16.049,9.898-29.849,9.898-41.099c0-3.899-1.5-5.25-3.899-5.25
				c-7.499,0-21.448,14.399-33.298,58.498h-14.851l13.05-49.048c2.249-8.55,2.101-11.4-1.199-11.4c-3.9,0-7.95,6.9-12.45,16.2
				l-6.601-3c6.15-14.1,13.2-22.349,22.351-22.349c6.3,0,10.35,4.5,10.35,13.799c0,4.5-1.05,10.2-3.45,16.649l1.051,0.45
				c9.449-20.25,20.249-31.199,30.448-31.199c7.949,0,12.601,7.049,12.601,15.899c0,12.15-10.649,30.899-10.649,41.249
				C789.216,111.4,789.965,112.6,791.915,112.6z"/>
			<path fill="#FFFFFF" d="M832.417,139.148c5.85,0,10.05-1.799,13.649-5.549c4.5-4.65,7.649-12.601,10.35-24.449l-1.05-0.45
				c-4.8,6.3-12.601,10.2-19.949,10.2c-12.3,0-19.499-9.9-19.499-21.449c0-13.5,5.1-25.949,14.1-34.949
				c6.75-6.75,13.949-10.35,22.199-10.35c7.649,0,13.199,4.8,14.85,11.399l2.551-10.5h13.799L870.367,108.1
				c-6.45,27.447-18.149,38.998-38.398,38.998c-11.25,0-23.1-3-23.1-13.649c0-4.8,3.3-10.949,9.45-10.949
				c5.249,0,7.648,3.601,7.648,7.649c0,2.699-1.649,5.85-3.149,7.35C824.768,138.398,828.218,139.148,832.417,139.148z
				 M863.466,73.902c0-7.95-5.1-13.35-10.499-13.35c-13.5,0-22.35,20.849-22.35,35.699c0,8.399,3.3,12.749,10.05,12.749
				C852.666,109,863.466,90.401,863.466,73.902z"/>
			<path fill="#FFFFFF" d="M945.215,99.102c-1.199,4.351-1.8,7.35-1.8,9.6c0,2.398,1.05,3.898,3.6,3.898
				c3.75,0,7.051-5.998,10.5-15.449l6.601,1.951c-6,18.748-13.649,24.299-21.449,24.299c-6.3,0-11.1-4.199-11.1-12.301
				c0-1.049,0-1.648,0.149-3.148l-1.05-0.45c-5.55,10.351-14.25,15.899-22.199,15.899c-11.55,0-18.898-10.051-18.898-23.25
				c0-15.148,6-27.749,13.949-35.697c7.35-7.35,16.198-12.299,24.448-12.299c7.949,0,12.149,5.399,13.05,11.699l2.851-10.799h13.8
				L945.215,99.102z M937.115,73.002c0-7.95-3.149-12.45-8.851-12.45c-14.698,0-23.999,25.649-23.999,37.349
				c0,9.3,3.15,14.85,9.75,14.85C926.916,112.75,937.115,85.151,937.115,73.002z"/>
			<path fill="#FFFFFF" d="M985.564,63.252c-3.9,0-6.45,4.2-11.7,14.55l-6.601-3c7.2-16.049,14.101-22.349,22.801-22.349
				c5.999,0,10.198,4.35,10.198,12c0,1.05-0.149,2.55-0.3,3.6l1.05,0.45c5.55-10.35,14.249-16.349,22.199-16.349
				c11.55,0,18.899,10.35,18.899,23.849c0,25.95-18.449,46.199-35.249,46.199c-7.801,0-13.801-4.05-16.351-9l-5.85,22.049h14.85
				l-2.7,9.899h-39.447l2.7-9.899h10.8l16.049-59.847C989.164,67.152,988.714,63.252,985.564,63.252z M994.264,100.602
				c0,7.799,3.301,13.35,10.801,13.35c14.85,0,22.349-26.399,22.349-38.099c0-8.7-2.55-13.5-8.699-13.5
				C1005.812,62.352,994.264,88.151,994.264,100.602z"/>
			<path fill="#FFFFFF" d="M1115.762,80.952c0,22.798-17.398,42.448-37.499,42.448c-16.499,0-26.549-12-26.549-28.799
				c0-22.8,17.399-42.449,37.498-42.449C1105.712,52.153,1115.762,64.152,1115.762,80.952z M1089.212,59.652
				c-14.399,0-22.948,25.199-22.948,41.249c0,9.899,4.199,15,11.999,15c14.399,0,22.949-25.199,22.949-41.25
				C1101.212,64.752,1097.012,59.652,1089.212,59.652z"/>
			<path fill="#FFFFFF" d="M1142.164,73.002c2.249-8.55,2.1-11.4-1.2-11.4c-3.899,0-7.95,6.9-12.45,16.2l-6.6-3
				c6.15-14.1,13.2-22.349,22.35-22.349c6.301,0,10.351,4.5,10.351,13.799c0,4.5-1.05,10.2-3.45,16.649l1.35,0.45
				c8.7-19.799,16.051-31.199,25.801-31.199c5.55,0,9.749,3.75,9.749,10.049c0,6.75-4.351,12.45-9.601,12.45
				c-4.648,0-7.8-3-7.8-8.55c-5.1,2.25-16.649,18.899-26.698,55.948h-14.85L1142.164,73.002z"/>
			<path fill="#FFFFFF" d="M1203.514,94.301c-0.148,1.801-0.3,3.45-0.3,4.95c0,11.699,6.149,15.749,13.8,15.749
				c7.799,0,15.6-6,21.449-15l6.149,3.602c-7.351,11.549-16.351,19.799-31.949,19.799c-13.799,0-23.999-10.649-23.999-26.698
				c0-22.799,20.399-44.548,42.299-44.548c11.55,0,17.85,6,17.85,14.549C1248.812,79.751,1234.562,91.751,1203.514,94.301z
				 M1205.014,87.551c22.049-2.85,30.898-10.5,30.898-20.549c0-3.9-2.399-7.35-7.35-7.35
				C1217.312,59.652,1208.613,74.352,1205.014,87.551z"/>
		</g>
	</g>
</g>
</svg>
