<?xml version="1.0" encoding="utf-8"?>
<!-- Generator: Adobe Illustrator 16.0.4, SVG Export Plug-In . SVG Version: 6.00 Build 0)  -->
<!DOCTYPE svg PUBLIC "-//W3C//DTD SVG 1.1//EN" "http://www.w3.org/Graphics/SVG/1.1/DTD/svg11.dtd">
<svg version="1.1" id="Layer_1" xmlns="http://www.w3.org/2000/svg" xmlns:xlink="http://www.w3.org/1999/xlink" x="0px" y="0px"
	 width="1150px" height="180px" viewBox="0 0 1150 180" enable-background="new 0 0 1150 180" xml:space="preserve">
<g>
	
		<image overflow="visible" opacity="0.4" width="477" height="133" xlink:href="8900C20B99399F70.png"  transform="matrix(1 0 0 1 117.5 3.5)">
	</image>
	<g>
		<g>
			<g>
				<g>
					<g>
						<polygon fill="#FFFFFF" points="226.965,40.062 226.965,23.595 188.343,23.595 171.877,23.595 133.254,23.595 133.254,40.062 
							171.68,40.062 171.68,100.838 133.254,100.838 133.254,117.307 171.877,117.307 188.343,117.307 226.965,117.307 
							226.965,100.838 188.537,100.838 188.537,40.062 						"/>
						<polygon fill="#FFFFFF" points="460.694,39.998 460.694,23.595 435.709,23.595 366.229,23.595 366.229,39.998 
							366.229,100.902 366.229,117.307 436.379,117.307 460.694,117.307 460.694,100.902 383.178,100.902 383.178,78.65 
							443.685,78.65 443.685,62.248 383.178,62.248 383.178,39.998 						"/>
						<path fill="#FFFFFF" d="M297.503,23.631v-0.036h-1.625h-3.159h-8.92h-17.051h-15.035v9.42v71.077v13.215h14.124h17.962h8.92
							h3.159h0.714v-0.019c29.063-0.329,49.085-20.681,49.085-46.973C345.677,44.302,326.072,24.361,297.503,23.631z
							 M296.664,101.176v-0.011h-27.059v-0.114h-1.05l0,0h-0.038V39.77h0.028v-0.057h1.538v0.001h26.843
							c18.454,0.439,30.46,13.32,30.46,30.847C327.387,88.186,315.267,100.865,296.664,101.176z"/>
						<path fill="#FFFFFF" d="M527.25,19.478c-28.438,0-51.489,22.823-51.489,50.966c0,28.158,23.051,50.98,51.489,50.98
							c28.438,0,51.495-22.822,51.495-50.98C578.745,42.301,555.688,19.478,527.25,19.478z M527.25,103.834
							c-18.615,0-33.714-14.949-33.714-33.39c0-18.42,15.099-33.368,33.714-33.368s33.715,14.948,33.715,33.368
							C560.965,88.885,545.865,103.834,527.25,103.834z"/>
					</g>
				</g>
			</g>
		</g>
	</g>
</g>
<g>
	
		<image overflow="visible" opacity="0.4" width="114" height="124" xlink:href="8900C20B99399F71.png"  transform="matrix(1 0 0 1 11.5 8.5)">
	</image>
	<g>
		<g>
			<g>
				<g>
					<path fill="#FFFFFF" d="M105.29,95.703H89.369l-3.612,21.541H71.441l3.613-21.541H53.245l-3.611,21.541H35.318l3.612-21.541
						H27.022V81.79h14.315l4.014-23.28H31.973V44.597H47.76l3.613-21.005h14.315l-3.612,21.005h21.807l3.612-21.005h14.316
						l-3.613,21.005h12.042V58.51H95.791l-4.014,23.28h13.513V95.703z M55.386,82.191h22.343l4.148-24.083H59.533L55.386,82.191z"/>
				</g>
			</g>
		</g>
	</g>
</g>
<g enable-background="new    ">
	
		<image overflow="visible" opacity="0.4" width="544" height="159" xlink:href="8900C20B99399F77.png"  transform="matrix(1 0 0 1 583.5 3.5)">
	</image>
	<g>
		<g>
			<path fill="#FFFFFF" d="M599.471,82.901c0-32.398,24.448-61.947,55.797-61.947c12.3,0,21.6,4.5,26.55,11.849l5.55-11.399h10.049
				l-9.6,38.699h-8.85c-1.949-22.799-11.399-29.249-24.299-29.249c-28.499,0-38.549,34.648-38.549,52.798
				c0,19.8,9.6,30.299,24.749,30.299c16.5,0,26.85-13.05,34.799-31.349l9.3,3.6c-7.5,20.85-21.899,38.249-45.448,38.249
				C611.47,124.45,599.471,106.301,599.471,82.901z"/>
			<path fill="#FFFFFF" d="M737.019,109.9c0-16.049,9.899-29.849,9.899-41.099c0-3.899-1.5-5.25-3.899-5.25
				c-7.5,0-22.949,14.399-34.799,58.498h-14.85l24.599-92.246h-13.649l2.851-10.8h27.448l-18.749,64.498l0.9,0.45
				c9.449-20.249,21.449-31.798,31.648-31.798c7.949,0,12.6,7.049,12.6,15.899c0,12.15-10.649,30.899-10.649,41.249
				c0,2.1,0.75,3.299,2.699,3.299c3.45,0,6.75-5.999,10.2-15.449l6.6,1.95c-6,18.749-13.8,24.299-20.699,24.299
				S737.019,118.75,737.019,109.9z"/>
			<path fill="#FFFFFF" d="M798.668,108.851c0,2.55,1.051,3.749,3.301,3.749c3.149,0,6.6-4.799,10.799-15.449l6.6,1.95
				c-5.85,18.149-13.799,24.299-22.049,24.299c-6.899,0-12.149-4.649-12.149-13.499c0-15.6,12.449-34.349,12.449-44.848
				c0-2.55-0.75-3.45-2.399-3.45c-4.8,0-8.7,6.9-13.199,16.2l-6.601-3c6.15-14.1,13.649-22.649,22.8-22.649
				c7.35,0,12.449,5.7,12.449,15.899C810.668,79.452,798.668,99.4,798.668,108.851z M807.218,40.753c-4.35,0-7.8-3-7.8-8.25
				c0-5.7,4.351-12.299,11.1-12.299c4.95,0,8.25,3.15,8.25,8.399C818.768,34.153,814.118,40.753,807.218,40.753z"/>
			<path fill="#FFFFFF" d="M887.166,68.502c0,5.25-3.149,11.55-9.149,11.55c-4.8,0-7.95-3.3-7.95-7.35c0-3.3,1.5-6.75,5.101-9.899
				c-1.2-1.5-3.9-3.15-8.4-3.15c-16.199,0-25.198,25.949-25.198,37.799c0,12.449,6.449,16.949,13.649,16.949
				c7.05,0,13.799-5.55,19.648-15.449l6.15,3.6c-6.45,11.999-14.399,20.849-28.049,20.849c-15.449,0-25.949-11.249-25.949-26.999
				c0-22.499,19.649-44.248,40.049-44.248C879.366,52.153,887.166,59.652,887.166,68.502z"/>
			<path fill="#FFFFFF" d="M948.967,99.101c-1.199,4.351-1.8,7.35-1.8,9.6c0,2.399,1.05,3.899,3.6,3.899
				c3.75,0,7.05-5.999,10.5-15.449l6.6,1.95c-6,18.749-13.649,24.299-21.449,24.299c-6.3,0-11.1-4.199-11.1-12.3
				c0-1.049,0-1.649,0.15-3.149l-1.05-0.45c-5.55,10.35-14.25,15.899-22.199,15.899c-11.55,0-18.899-10.05-18.899-23.249
				c0-15.149,6-27.749,13.949-35.698c7.35-7.35,16.199-12.299,24.449-12.299c7.949,0,12.149,5.399,13.05,11.699l2.85-10.799h13.8
				L948.967,99.101z M940.867,73.002c0-7.95-3.149-12.45-8.85-12.45c-14.699,0-23.999,25.649-23.999,37.348
				c0,9.3,3.15,14.85,9.75,14.85C930.668,112.75,940.867,85.151,940.867,73.002z"/>
			<path fill="#FFFFFF" d="M990.966,139.149c5.85,0,10.05-1.8,13.649-5.55c4.5-4.65,7.65-12.6,10.35-24.449l-1.05-0.45
				c-4.8,6.3-12.6,10.2-19.949,10.2c-12.3,0-19.499-9.9-19.499-21.449c0-13.5,5.1-25.949,14.1-34.949
				c6.75-6.75,13.949-10.35,22.199-10.35c7.649,0,13.199,4.8,14.849,11.399l2.551-10.5h13.799l-13.049,55.048
				c-6.45,27.448-18.149,38.998-38.398,38.998c-11.25,0-23.1-3-23.1-13.649c0-4.8,3.3-10.949,9.45-10.949
				c5.249,0,7.649,3.6,7.649,7.649c0,2.7-1.65,5.85-3.15,7.35C983.316,138.399,986.767,139.149,990.966,139.149z M1022.015,73.902
				c0-7.95-5.1-13.35-10.499-13.35c-13.5,0-22.35,20.849-22.35,35.699c0,8.399,3.3,12.749,10.05,12.749
				C1011.215,109,1022.015,90.401,1022.015,73.902z"/>
			<path fill="#FFFFFF" d="M1112.164,80.952c0,22.798-17.399,42.448-37.499,42.448c-16.499,0-26.549-11.999-26.549-28.798
				c0-22.8,17.399-42.449,37.498-42.449C1102.114,52.153,1112.164,64.152,1112.164,80.952z M1085.614,59.652
				c-14.399,0-22.948,25.199-22.948,41.248c0,9.9,4.199,15,11.999,15c14.399,0,22.949-25.199,22.949-41.249
				C1097.614,64.752,1093.414,59.652,1085.614,59.652z"/>
		</g>
	</g>
</g>
</svg>
