<?xml version="1.0" encoding="utf-8"?>
<!-- Generator: Adobe Illustrator 16.0.4, SVG Export Plug-In . SVG Version: 6.00 Build 0)  -->
<!DOCTYPE svg PUBLIC "-//W3C//DTD SVG 1.1//EN" "http://www.w3.org/Graphics/SVG/1.1/DTD/svg11.dtd">
<svg version="1.1" id="Layer_1" xmlns="http://www.w3.org/2000/svg" xmlns:xlink="http://www.w3.org/1999/xlink" x="0px" y="0px"
	 width="825px" height="180px" viewBox="0 0 825 180" enable-background="new 0 0 825 180" xml:space="preserve">
<g>
	
		<image overflow="visible" opacity="0.4" width="476" height="133" xlink:href="243BBCB0DF604045.png"  transform="matrix(1 0 0 1 118 3.5)">
	</image>
	<g>
		<g>
			<g>
				<g>
					<g>
						<polygon fill="#FFFFFF" points="226.965,40.062 226.965,23.595 188.343,23.595 171.877,23.595 133.254,23.595 133.254,40.062 
							171.68,40.062 171.68,100.838 133.254,100.838 133.254,117.307 171.877,117.307 188.343,117.307 226.965,117.307 
							226.965,100.838 188.537,100.838 188.537,40.062 						"/>
						<polygon fill="#FFFFFF" points="460.694,39.998 460.694,23.595 435.709,23.595 366.229,23.595 366.229,39.998 
							366.229,100.902 366.229,117.307 436.379,117.307 460.694,117.307 460.694,100.902 383.178,100.902 383.178,78.65 
							443.685,78.65 443.685,62.248 383.178,62.248 383.178,39.998 						"/>
						<path fill="#FFFFFF" d="M297.503,23.631v-0.036h-1.625h-3.159h-8.92h-17.051h-15.035v9.42v71.077v13.215h14.124h17.962h8.92
							h3.159h0.714v-0.019c29.063-0.329,49.085-20.681,49.085-46.973C345.677,44.302,326.072,24.361,297.503,23.631z
							 M296.664,101.176v-0.011h-27.059v-0.114h-1.05l0,0h-0.038V39.77h0.028v-0.057h1.538v0.001h26.843
							c18.454,0.439,30.46,13.32,30.46,30.847C327.387,88.186,315.267,100.865,296.664,101.176z"/>
						<path fill="#FFFFFF" d="M527.25,19.478c-28.438,0-51.489,22.823-51.489,50.966c0,28.158,23.051,50.98,51.489,50.98
							c28.438,0,51.495-22.822,51.495-50.98C578.745,42.301,555.688,19.478,527.25,19.478z M527.25,103.834
							c-18.615,0-33.714-14.949-33.714-33.39c0-18.42,15.099-33.368,33.714-33.368s33.715,14.948,33.715,33.368
							C560.965,88.885,545.865,103.834,527.25,103.834z"/>
					</g>
				</g>
			</g>
		</g>
	</g>
</g>
<g>
	
		<image overflow="visible" opacity="0.4" width="114" height="124" xlink:href="243BBCB0DF604047.png"  transform="matrix(1 0 0 1 12 8.5)">
	</image>
	<g>
		<g>
			<g>
				<g>
					<path fill="#FFFFFF" d="M105.29,95.703H89.369l-3.612,21.541H71.441l3.613-21.541H53.245l-3.611,21.541H35.318l3.612-21.541
						H27.022V81.79h14.315l4.014-23.28H31.973V44.597H47.76l3.613-21.005h14.315l-3.612,21.005h21.807l3.612-21.005h14.316
						l-3.613,21.005h12.042V58.51H95.791l-4.014,23.28h13.513V95.703z M55.386,82.191h22.343l4.148-24.083H59.533L55.386,82.191z"/>
				</g>
			</g>
		</g>
	</g>
</g>
<g enable-background="new    ">
	
		<image overflow="visible" opacity="0.4" width="218" height="130" xlink:href="243BBCB0DF604042.png"  transform="matrix(1 0 0 1 571 7.5)">
	</image>
	<g>
		<g>
			<path fill="#FFFFFF" d="M620.319,112.15h17.999l-2.25,9.899h-49.947l2.25-9.899h16.499l19.649-78.897h-16.8l2.4-9.899h40.198
				c25.799,0,36.299,11.849,36.299,24.749c0,13.949-9.6,33.448-46.948,33.448h-11.7L620.319,112.15z M640.868,72.552
				c19.949,0,28.05-11.25,28.05-24.149c0-8.7-5.101-15.149-21.75-15.149h-7.199l-9.75,39.298H640.868z"/>
			<path fill="#FFFFFF" d="M743.618,112.15l-2.101-24.749H707.02L692.32,112.15h12.449l-2.4,9.899h-35.698l2.4-9.899h10.649
				l55.197-89.396h15.149l9.3,89.396h13.649l-2.399,9.899h-44.998l2.399-9.899H743.618z M740.768,78.702l-3.6-41.398h-0.6
				l-24.449,41.398H740.768z"/>
		</g>
	</g>
</g>
</svg>
