<?xml version="1.0" encoding="utf-8"?>
<!-- Generator: Adobe Illustrator 16.0.4, SVG Export Plug-In . SVG Version: 6.00 Build 0)  -->
<!DOCTYPE svg PUBLIC "-//W3C//DTD SVG 1.1//EN" "http://www.w3.org/Graphics/SVG/1.1/DTD/svg11.dtd">
<svg version="1.1" id="Layer_1" xmlns="http://www.w3.org/2000/svg" xmlns:xlink="http://www.w3.org/1999/xlink" x="0px" y="0px"
	 width="1120px" height="180px" viewBox="0 0 1120 180" enable-background="new 0 0 1120 180" xml:space="preserve">
<g>
	<g>
		<g>
			<g>
				<g>
					<g>
						<polygon fill="#FFFFFF" points="226.965,40.062 226.965,23.595 188.343,23.595 171.877,23.595 133.254,23.595 133.254,40.062 
							171.68,40.062 171.68,100.838 133.254,100.838 133.254,117.307 171.877,117.307 188.343,117.307 226.965,117.307 
							226.965,100.838 188.537,100.838 188.537,40.062 						"/>
						<polygon fill="#FFFFFF" points="460.694,39.998 460.694,23.595 435.709,23.595 366.229,23.595 366.229,39.998 
							366.229,100.902 366.229,117.307 436.379,117.307 460.694,117.307 460.694,100.902 383.178,100.902 383.178,78.65 
							443.685,78.65 443.685,62.248 383.178,62.248 383.178,39.998 						"/>
						<path fill="#FFFFFF" d="M297.503,23.631v-0.036h-1.625h-3.159h-8.92h-17.051h-15.035v9.42v71.077v13.215h14.124h17.962h8.92
							h3.159h0.714v-0.019c29.063-0.329,49.085-20.681,49.085-46.973C345.677,44.302,326.072,24.361,297.503,23.631z
							 M296.664,101.176v-0.011h-27.059v-0.114h-1.05l0,0h-0.038V39.77h0.028v-0.057h1.538v0.001h26.843
							c18.454,0.439,30.46,13.32,30.46,30.847C327.387,88.186,315.267,100.865,296.664,101.176z"/>
						<path fill="#FFFFFF" d="M527.25,19.478c-28.438,0-51.489,22.823-51.489,50.966c0,28.158,23.051,50.98,51.489,50.98
							c28.438,0,51.495-22.822,51.495-50.98C578.745,42.301,555.688,19.478,527.25,19.478z M527.25,103.834
							c-18.615,0-33.714-14.949-33.714-33.39c0-18.42,15.099-33.368,33.714-33.368s33.715,14.948,33.715,33.368
							C560.965,88.885,545.865,103.834,527.25,103.834z"/>
					</g>
				</g>
			</g>
		</g>
	</g>
</g>
<g>
	<g>
		<g>
			<g>
				<g>
					<path fill="#FFFFFF" d="M105.29,95.703H89.369l-3.612,21.541H71.441l3.613-21.541H53.245l-3.611,21.541H35.318l3.612-21.541
						H27.022V81.79h14.315l4.014-23.28H31.973V44.597H47.76l3.613-21.005h14.315l-3.612,21.005h21.807l3.612-21.005h14.316
						l-3.613,21.005h12.042V58.51H95.791l-4.014,23.28h13.513V95.703z M55.386,82.191h22.343l4.148-24.083H59.533L55.386,82.191z"/>
				</g>
			</g>
		</g>
	</g>
</g>
<g enable-background="new    ">
	<g>
		<g>
			<path fill="#FFFFFF" d="M658.868,23.354l-2.4,9.899h-16.499L620.32,112.15h20.1c13.199,0,16.349-5.25,26.698-25.199h7.5
				l-8.699,35.099h-79.797l2.25-9.899h16.499l19.648-78.896h-16.8l2.4-9.899L658.868,23.354L658.868,23.354z"/>
			<path fill="#FFFFFF" d="M747.968,80.952c0,22.798-17.398,42.448-37.499,42.448c-16.499,0-26.549-12-26.549-28.799
				c0-22.8,17.399-42.449,37.498-42.449C737.918,52.153,747.968,64.152,747.968,80.952z M721.418,59.652
				c-14.398,0-22.948,25.199-22.948,41.249c0,9.899,4.199,15,11.999,15c14.399,0,22.949-25.199,22.949-41.25
				C733.418,64.752,729.218,59.652,721.418,59.652z"/>
			<path fill="#FFFFFF" d="M819.517,112.6c3.45,0,6.75-5.998,10.2-15.449l6.601,1.951c-6,18.748-13.801,24.299-20.699,24.299
				c-6.9,0-12.149-4.649-12.149-13.5c0-16.049,9.899-29.849,9.899-41.099c0-3.899-1.5-5.25-3.9-5.25
				c-7.499,0-21.448,14.399-33.298,58.498h-14.85l13.05-49.048c2.249-8.55,2.1-11.4-1.2-11.4c-3.9,0-7.95,6.9-12.45,16.2l-6.6-3
				c6.15-14.1,13.2-22.349,22.35-22.349c6.3,0,10.351,4.5,10.351,13.799c0,4.5-1.051,10.2-3.45,16.649l1.05,0.45
				c9.45-20.25,20.249-31.199,30.449-31.199c7.949,0,12.6,7.049,12.6,15.899c0,12.15-10.648,30.899-10.648,41.249
				C816.817,111.4,817.566,112.6,819.517,112.6z"/>
			<path fill="#FFFFFF" d="M918.065,99.102c-6,18.748-13.649,24.299-21.449,24.299c-6.3,0-11.101-4.351-11.101-12.449
				c0-0.75,0-1.352,0.15-3l-1.05-0.45c-5.55,10.351-14.25,15.899-22.199,15.899c-11.55,0-18.898-10.051-18.898-23.25
				c0-15.148,6-27.749,13.948-35.697c7.351-7.35,16.199-12.299,24.449-12.299c7.8,0,11.699,4.05,13.35,10.5l8.851-32.849h-13.649
				l2.851-10.8h27.448l-21.6,80.097c-1.199,4.352-1.8,7.351-1.8,9.601c0,2.399,1.05,3.899,3.6,3.899c3.75,0,7.05-6,10.5-15.449
				L918.065,99.102z M891.217,71.802c0-7.35-2.399-11.25-8.7-11.25c-15.448,0-24.299,25.649-24.299,37.349
				c0,9.3,3.15,14.85,9.75,14.85C880.867,112.75,891.217,85.751,891.217,71.802z"/>
			<path fill="#FFFFFF" d="M988.715,80.952c0,22.798-17.398,42.448-37.499,42.448c-16.499,0-26.549-12-26.549-28.799
				c0-22.8,17.399-42.449,37.498-42.449C978.665,52.153,988.715,64.152,988.715,80.952z M962.165,59.652
				c-14.399,0-22.948,25.199-22.948,41.249c0,9.899,4.199,15,11.999,15c14.399,0,22.949-25.199,22.949-41.25
				C974.165,64.752,969.965,59.652,962.165,59.652z"/>
			<path fill="#FFFFFF" d="M1060.264,112.6c3.45,0,6.75-5.998,10.2-15.449l6.601,1.951c-6,18.748-13.801,24.299-20.699,24.299
				c-6.9,0-12.149-4.649-12.149-13.5c0-16.049,9.899-29.849,9.899-41.099c0-3.899-1.5-5.25-3.9-5.25
				c-7.499,0-21.448,14.399-33.298,58.498h-14.85l13.049-49.048c2.25-8.55,2.101-11.4-1.199-11.4c-3.9,0-7.95,6.9-12.45,16.2l-6.6-3
				c6.15-14.1,13.2-22.349,22.35-22.349c6.3,0,10.351,4.5,10.351,13.799c0,4.5-1.051,10.2-3.45,16.649l1.05,0.45
				c9.45-20.25,20.249-31.199,30.449-31.199c7.949,0,12.6,7.049,12.6,15.899c0,12.15-10.648,30.899-10.648,41.249
				C1057.564,111.4,1058.314,112.6,1060.264,112.6z"/>
		</g>
	</g>
</g>
</svg>
