<?xml version="1.0" encoding="utf-8"?>
<!-- Generator: Adobe Illustrator 16.0.4, SVG Export Plug-In . SVG Version: 6.00 Build 0)  -->
<!DOCTYPE svg PUBLIC "-//W3C//DTD SVG 1.1//EN" "http://www.w3.org/Graphics/SVG/1.1/DTD/svg11.dtd">
<svg version="1.1" id="Layer_1" xmlns="http://www.w3.org/2000/svg" xmlns:xlink="http://www.w3.org/1999/xlink" x="0px" y="0px"
	 width="1058px" height="180px" viewBox="0 0 1058 180" enable-background="new 0 0 1058 180" xml:space="preserve">
<g>
	
		<image overflow="visible" opacity="0.4" width="477" height="133" xlink:href="6F6E7ED8FBD1062D.png"  transform="matrix(1 0 0 1 117.5 3.5)">
	</image>
	<g>
		<g>
			<g>
				<g>
					<g>
						<polygon fill="#FFFFFF" points="226.965,40.062 226.965,23.595 188.343,23.595 171.877,23.595 133.254,23.595 133.254,40.062 
							171.68,40.062 171.68,100.838 133.254,100.838 133.254,117.307 171.877,117.307 188.343,117.307 226.965,117.307 
							226.965,100.838 188.537,100.838 188.537,40.062 						"/>
						<polygon fill="#FFFFFF" points="460.694,39.998 460.694,23.595 435.709,23.595 366.229,23.595 366.229,39.998 
							366.229,100.902 366.229,117.307 436.379,117.307 460.694,117.307 460.694,100.902 383.178,100.902 383.178,78.65 
							443.685,78.65 443.685,62.248 383.178,62.248 383.178,39.998 						"/>
						<path fill="#FFFFFF" d="M297.503,23.631v-0.036h-1.625h-3.159h-8.92h-17.051h-15.035v9.42v71.077v13.215h14.124h17.962h8.92
							h3.159h0.714v-0.019c29.063-0.329,49.085-20.681,49.085-46.973C345.677,44.302,326.072,24.361,297.503,23.631z
							 M296.664,101.176v-0.011h-27.059v-0.114h-1.05l0,0h-0.038V39.77h0.028v-0.057h1.538v0.001h26.843
							c18.454,0.439,30.46,13.32,30.46,30.847C327.387,88.186,315.267,100.865,296.664,101.176z"/>
						<path fill="#FFFFFF" d="M527.25,19.478c-28.438,0-51.489,22.823-51.489,50.966c0,28.158,23.051,50.98,51.489,50.98
							c28.438,0,51.495-22.822,51.495-50.98C578.745,42.301,555.688,19.478,527.25,19.478z M527.25,103.834
							c-18.615,0-33.714-14.949-33.714-33.39c0-18.42,15.099-33.368,33.714-33.368s33.715,14.948,33.715,33.368
							C560.965,88.885,545.865,103.834,527.25,103.834z"/>
					</g>
				</g>
			</g>
		</g>
	</g>
</g>
<g>
	
		<image overflow="visible" opacity="0.4" width="114" height="124" xlink:href="6F6E7ED8FBD1062F.png"  transform="matrix(1 0 0 1 11.5 8.5)">
	</image>
	<g>
		<g>
			<g>
				<g>
					<path fill="#FFFFFF" d="M105.29,95.703H89.369l-3.612,21.541H71.441l3.613-21.541H53.245l-3.611,21.541H35.318l3.612-21.541
						H27.022V81.79h14.315l4.014-23.28H31.973V44.597H47.76l3.613-21.005h14.315l-3.612,21.005h21.807l3.612-21.005h14.316
						l-3.613,21.005h12.042V58.51H95.791l-4.014,23.28h13.513V95.703z M55.386,82.191h22.343l4.148-24.083H59.533L55.386,82.191z"/>
				</g>
			</g>
		</g>
	</g>
</g>
<g enable-background="new    ">
	
		<image overflow="visible" opacity="0.4" width="476" height="131" xlink:href="6F6E7ED8FBD1062A.png"  transform="matrix(1 0 0 1 570.5 7.5)">
	</image>
	<g>
		<g>
			<path fill="#FFFFFF" d="M588.371,112.15h16.499l19.649-78.897h-16.8l2.4-9.899h41.248c25.799,0,33.299,10.799,33.299,21.299
				c0,10.95-7.35,23.999-30.749,25.499l-0.149,0.75c16.049,2.85,23.849,11.1,23.849,21.749c0,7.35-3.3,13.95-7.35,18
				c-7.35,7.35-18.899,11.399-39.448,11.399h-44.698L588.371,112.15z M633.519,112.15c22.35,0,28.499-11.1,28.499-22.199
				c0-8.7-6-15.449-22.349-15.449h-9.899l-9.45,37.648H633.519z M644.469,65.802c18.599,0,24.299-12.3,24.299-19.949
				c0-7.95-4.5-12.6-17.999-12.6h-10.8l-8.1,32.549H644.469z"/>
			<path fill="#FFFFFF" d="M752.918,80.952c0,22.798-17.399,42.448-37.499,42.448c-16.499,0-26.549-11.999-26.549-28.798
				c0-22.8,17.399-42.449,37.498-42.449C742.868,52.153,752.918,64.152,752.918,80.952z M726.368,59.652
				c-14.399,0-22.948,25.199-22.948,41.248c0,9.9,4.199,15,11.999,15c14.399,0,22.949-25.199,22.949-41.249
				C738.368,64.752,734.168,59.652,726.368,59.652z"/>
			<path fill="#FFFFFF" d="M785.32,123.399c-11.549,0-26.698-5.1-26.698-16.949c0-5.249,3.3-10.349,8.999-10.349
				c4.8,0,7.5,3.749,7.5,7.499c0,3.899-1.95,6.899-3.6,8.1c2.85,2.85,8.549,4.5,13.799,4.5c7.65,0,13.05-3.601,13.05-11.399
				c0-5.7-5.85-8.55-14.1-12.15c-7.949-3.599-16.35-7.649-16.35-17.549c0-15.749,14.7-22.949,26.249-22.949
				c14.1,0,23.85,6.299,23.85,14.999c0,5.55-3.15,10.5-8.7,10.5c-4.199,0-7.35-3-7.35-7.199c0-2.85,1.65-6.3,3.9-7.95
				c-1.5-1.65-6.601-3.3-11.55-3.3c-7.05,0-13.05,3.45-13.05,10.65c0,5.85,5.7,8.7,14.25,12.449c7.949,3.6,16.199,7.5,16.199,17.699
				C811.72,115.3,799.27,123.399,785.32,123.399z"/>
			<path fill="#FFFFFF" d="M854.171,63.252l-9.449,34.199c-1.2,4.5-1.95,7.949-1.95,9.899c0,3.749,1.65,5.249,4.95,5.249
				c5.55,0,10.199-7.499,14.699-16.648l6.75,1.949c-7.95,21.749-19.199,25.499-25.35,25.499c-9.449,0-15.149-4.649-15.149-13.499
				c0-4.949,1.95-11.699,3-15.899l8.399-30.749h-13.649l2.101-8.1h13.649l4.949-18.149l14.55-1.5l-5.4,19.649h21l-2.25,8.1H854.171z
				"/>
			<path fill="#FFFFFF" d="M942.819,80.952c0,22.798-17.399,42.448-37.499,42.448c-16.499,0-26.549-11.999-26.549-28.798
				c0-22.8,17.399-42.449,37.498-42.449C932.77,52.153,942.819,64.152,942.819,80.952z M916.27,59.652
				c-14.399,0-22.948,25.199-22.948,41.248c0,9.9,4.199,15,11.999,15c14.399,0,22.949-25.199,22.949-41.249
				C928.27,64.752,924.069,59.652,916.27,59.652z"/>
			<path fill="#FFFFFF" d="M1014.368,112.6c3.45,0,6.75-5.999,10.2-15.449l6.6,1.95c-6,18.749-13.8,24.299-20.699,24.299
				c-6.9,0-12.149-4.649-12.149-13.499c0-16.049,9.899-29.849,9.899-41.099c0-3.899-1.5-5.25-3.9-5.25
				c-7.499,0-21.448,14.399-33.298,58.498h-14.85l13.05-49.048c2.249-8.55,2.1-11.4-1.2-11.4c-3.9,0-7.95,6.9-12.45,16.2l-6.6-3
				c6.15-14.1,13.2-22.349,22.35-22.349c6.3,0,10.35,4.5,10.35,13.799c0,4.5-1.05,10.2-3.45,16.649l1.05,0.45
				c9.45-20.25,20.249-31.199,30.449-31.199c7.949,0,12.6,7.049,12.6,15.899c0,12.15-10.649,30.899-10.649,41.249
				C1011.669,111.4,1012.418,112.6,1014.368,112.6z"/>
		</g>
	</g>
</g>
</svg>
